<mxfile host="app.diagrams.net" agent="Mozilla/5.0 (Windows NT 10.0; Win64; x64) AppleWebKit/537.36 (KHTML, like Gecko) Chrome/140.0.0.0 Safari/537.36" version="28.2.5">
  <diagram id="f7QGsoBVH9kQQxc8iFg2" name="ページ1">
    <mxGraphModel dx="1040" dy="1812" grid="1" gridSize="10" guides="1" tooltips="1" connect="1" arrows="1" fold="1" page="1" pageScale="1" pageWidth="827" pageHeight="1169" math="0" shadow="0">
      <root>
        <mxCell id="0" />
        <mxCell id="1" parent="0" />
        <mxCell id="Am1LciZVKoa-NqnubUaL-1" value="&lt;div&gt;### **学校に行かない行動。家庭での様子**&lt;/div&gt;&lt;div&gt;- **具体的な「理由」**：&lt;/div&gt;&lt;div&gt;&amp;nbsp; - 月曜日・火曜日。月曜日は理由不明。火曜日は個人面談が嫌いらしい&lt;/div&gt;&lt;div&gt;&amp;nbsp; - 寝癖があるからイヤ&lt;/div&gt;&lt;div&gt;&amp;nbsp; - 粘土が重いからイヤ&lt;/div&gt;&lt;div&gt;&amp;nbsp; - 鍵盤ハーモニカが重いからイヤ&lt;/div&gt;&lt;div&gt;&amp;nbsp; - youtubeが見終わっていないからイヤ&lt;/div&gt;&lt;div&gt;&amp;nbsp; - その他いろいろ。些細すぎる意にそぐわないこと。他人のせいにする&lt;/div&gt;&lt;div&gt;&amp;nbsp; - 腹痛や頭痛など仮病を訴えることは無い&lt;/div&gt;&lt;div&gt;- **具体的な「行動」**：&lt;/div&gt;&lt;div&gt;&amp;nbsp; - 大声&lt;/div&gt;&lt;div&gt;&amp;nbsp; - 「＊＊のせいだから無理！」&lt;/div&gt;&lt;div&gt;&amp;nbsp; - 何度も繰り返して言う。粘着的&lt;/div&gt;&lt;div&gt;&amp;nbsp; - 粘着が激しく、妻の大きな精神疲弊に繋がっている&lt;/div&gt;&lt;div&gt;- **変化のきっかけ**：&lt;/div&gt;&lt;div&gt;&amp;nbsp; - いつ頃から学校を嫌がるようになったか&lt;/div&gt;&lt;div&gt;&amp;nbsp; &amp;nbsp; - 今年度から&lt;/div&gt;&lt;div&gt;&amp;nbsp; - 何か特別な出来事（転校、担任の変化、友達とのトラブルなど）があったか&lt;/div&gt;&lt;div&gt;&amp;nbsp; &amp;nbsp; - 無いと思われる&lt;/div&gt;&lt;div&gt;- **学校に行く前後の様子**：&lt;/div&gt;&lt;div&gt;&amp;nbsp; - 登校前の体調や気分の変化（例：頭痛、不眠、イライラなど）&lt;/div&gt;&lt;div&gt;&amp;nbsp; &amp;nbsp; - 非常にイライラしている&lt;/div&gt;&lt;div&gt;&amp;nbsp; &amp;nbsp; - 妻と夫に対して暴力がある&lt;/div&gt;&lt;div&gt;&amp;nbsp; &amp;nbsp; - 大声になる&lt;/div&gt;&lt;div&gt;&amp;nbsp; &amp;nbsp; - 放置しておくと何もしていない。&lt;/div&gt;&lt;div&gt;&amp;nbsp; &amp;nbsp; &amp;nbsp; - ゲームしない&lt;/div&gt;&lt;div&gt;&amp;nbsp; &amp;nbsp; &amp;nbsp; - 本読まない&lt;/div&gt;&lt;div&gt;&amp;nbsp; &amp;nbsp; &amp;nbsp; - TV見ない&lt;/div&gt;&lt;div&gt;&amp;nbsp; &amp;nbsp; &amp;nbsp; - 座椅子でゴロゴロしている&lt;/div&gt;&lt;div&gt;&amp;nbsp; - 学校から帰ってきた後の様子（例：疲れ果てている、怒りっぽいなど）&lt;/div&gt;&lt;div&gt;&amp;nbsp; &amp;nbsp; - 何もない。嫌がっていたのがウソのようにスッキリしている&lt;/div&gt;&lt;div&gt;&lt;br&gt;&lt;/div&gt;&lt;div&gt;### **自閉症特性に関連する可能性のあること**&lt;/div&gt;&lt;div&gt;- **感覚過敏**：&lt;/div&gt;&lt;div&gt;&amp;nbsp; - 音、光、触覚、臭いなど、学校で不快に感じている感覚的な要因はあるか&lt;/div&gt;&lt;div&gt;&amp;nbsp; &amp;nbsp; - 学校では無いようである。&lt;/div&gt;&lt;div&gt;- **ルーティンの変化**：&lt;/div&gt;&lt;div&gt;&amp;nbsp; - 学校の予定変更や突然のイベントに対する反応&lt;/div&gt;&lt;div&gt;&amp;nbsp; &amp;nbsp; - わからない。不快について話してくれることはない&lt;/div&gt;&lt;div&gt;- **コミュニケーション**：&lt;/div&gt;&lt;div&gt;&amp;nbsp; - 友達や先生とのやり取りで困っていることはあるか&lt;/div&gt;&lt;div&gt;&amp;nbsp; &amp;nbsp; - 話してくれない。無視される&lt;/div&gt;&lt;div&gt;&amp;nbsp; - 言葉以外のコミュニケーション（ジェスチャー、絵カードなど）が必要か&lt;/div&gt;&lt;div&gt;&amp;nbsp; &amp;nbsp; - 必要無い&lt;/div&gt;&lt;div&gt;&lt;br&gt;&lt;/div&gt;&lt;div&gt;### **これまでの対応と効果**&lt;/div&gt;&lt;div&gt;- **家庭で試したこと**：&lt;/div&gt;&lt;div&gt;&amp;nbsp; - どんな声かけや工夫をしてきたか、どの程度効果があったか&lt;/div&gt;&lt;div&gt;&amp;nbsp; &amp;nbsp; - 「8:15までに出発しないと遅刻になるから困るよ！」&lt;/div&gt;&lt;div&gt;&amp;nbsp; &amp;nbsp; - 最初は穏やかに。回数を重ねるごとに口調を強くしていく&lt;/div&gt;&lt;div&gt;&amp;nbsp; &amp;nbsp; - 効果は無い。&lt;/div&gt;&lt;div&gt;&amp;nbsp; &amp;nbsp; - 穏やか声かけ時は無視される。&lt;/div&gt;&lt;div&gt;&amp;nbsp; &amp;nbsp; - 口調を強くすると反発が起き、反発はずっと継続する&lt;/div&gt;&lt;div&gt;- **登校するきっかけ**：&lt;/div&gt;&lt;div&gt;&amp;nbsp; - どんなきっかけで登校に至るのか？&lt;/div&gt;&lt;div&gt;&amp;nbsp; &amp;nbsp; - 明確なパターンは無い&lt;/div&gt;&lt;div&gt;&amp;nbsp; &amp;nbsp; - 放置して反発がの行き所が無くなりクールダウンすると登校する時がある&lt;/div&gt;&lt;div&gt;&amp;nbsp; &amp;nbsp; - 息子の中で切り替わるスイッチがあるようだが、親としてはわからない&lt;/div&gt;&lt;div&gt;- **学校との連携**：&lt;/div&gt;&lt;div&gt;&amp;nbsp; - これまで担任や支援員とどのような相談をしてきたか&lt;/div&gt;&lt;div&gt;&amp;nbsp; &amp;nbsp; - 遅刻連絡をしている&lt;/div&gt;&lt;div&gt;&amp;nbsp; &amp;nbsp; - 深い相談はしていない&lt;/div&gt;&lt;div&gt;&amp;nbsp; &amp;nbsp; - 先生には大変にご迷惑おかけしています。&lt;/div&gt;&lt;div&gt;&amp;nbsp; - 学校からのフィードバックはあるか&lt;/div&gt;&lt;div&gt;&amp;nbsp; &amp;nbsp; - 現在無し。これからの予定&lt;/div&gt;&lt;div&gt;&lt;br&gt;&lt;/div&gt;&lt;div&gt;### **スクールカウンセラーに期待すること**&lt;/div&gt;&lt;div&gt;- **具体的な支援の希望**：&lt;/div&gt;&lt;div&gt;&amp;nbsp; - お子さんの特性に合わせた配慮（例：休憩スペースの確保、視覚スケジュールの活用など）&lt;/div&gt;&lt;div&gt;&amp;nbsp; &amp;nbsp; - 無し&lt;/div&gt;&lt;div&gt;&amp;nbsp; - 先生や友達への理解促進（例：クラスでの自閉症についての説明など）&lt;/div&gt;&lt;div&gt;&amp;nbsp; &amp;nbsp; - 不要&lt;/div&gt;&lt;div&gt;&amp;nbsp; - 不登校になった場合の対応（例：段階的な登校、家庭と学校の連絡方法など）&lt;/div&gt;&lt;div&gt;&amp;nbsp; &amp;nbsp; - 段階的な登校を希望します&lt;/div&gt;&lt;div&gt;&amp;nbsp; &amp;nbsp; - 連絡方法は今まで通り遅刻連絡のみで良いでしょうか？&lt;/div&gt;&lt;div&gt;&amp;nbsp; - 親への精神的ケアの提供&lt;/div&gt;&lt;div&gt;&amp;nbsp; &amp;nbsp; - 夫&lt;/div&gt;&lt;div&gt;&amp;nbsp; &amp;nbsp; &amp;nbsp; - 「不登校保護者の会」などの当事者コミュニティを紹介して欲しい&lt;/div&gt;&lt;div&gt;&amp;nbsp; &amp;nbsp; &amp;nbsp; &amp;nbsp; - もうどうすればよいかわからず、先駆者の事例を聞きたい&lt;/div&gt;&lt;div&gt;&amp;nbsp; &amp;nbsp; &amp;nbsp; &amp;nbsp; - 孤独感が強く仲間が欲しい&lt;/div&gt;&lt;div&gt;&amp;nbsp; &amp;nbsp; - 妻&lt;/div&gt;&lt;div&gt;&amp;nbsp; &amp;nbsp; &amp;nbsp; - 上四ツ木病院の医師からは精神科に通うようアドバイスされている。通うべきでしょうか？&lt;/div&gt;&lt;div&gt;&amp;nbsp; &amp;nbsp; &amp;nbsp; &amp;nbsp; - 反発時対応の精神的負荷が強すぎるため&lt;/div&gt;&lt;div&gt;&amp;nbsp; &amp;nbsp; &amp;nbsp; &amp;nbsp; &amp;nbsp; - 抑うつ行動が出ている。&lt;/div&gt;&lt;div&gt;&amp;nbsp; &amp;nbsp; &amp;nbsp; &amp;nbsp; - 紹介状は出てない&lt;/div&gt;&lt;div&gt;&amp;nbsp; &amp;nbsp; &amp;nbsp; &amp;nbsp; - 妻は行きたがらない&lt;/div&gt;&lt;div&gt;&amp;nbsp; &amp;nbsp; &amp;nbsp; &amp;nbsp; - 不登校コミュニティへの参加希望は無し&lt;/div&gt;&lt;div&gt;&lt;br&gt;&lt;/div&gt;&lt;div&gt;---&lt;/div&gt;&lt;div&gt;&lt;br&gt;&lt;/div&gt;&lt;div&gt;**相談の際のコツ**&lt;/div&gt;&lt;div&gt;- **メモを持参**：上記のポイントを簡潔にまとめたメモを持っていくと、伝え忘れが防げます。&lt;/div&gt;&lt;div&gt;- **具体例を挙げる**：「先週の火曜日、給食の時間にパニックになった」など、具体的なエピソードを伝えると、カウンセラーも状況を把握しやすいです。&lt;/div&gt;&lt;div&gt;- **質問を準備**：「このような場合、どのような支援が可能ですか？」「家庭でできることはありますか？」など、積極的に質問しましょう。&lt;/div&gt;&lt;div&gt;&lt;br&gt;&lt;/div&gt;&lt;div&gt;---&lt;/div&gt;&lt;div&gt;**参考**&lt;/div&gt;&lt;div&gt;- [文部科学省：発達障害のある子どものための教育支援ガイド](https://www.mext.go.jp/)&lt;/div&gt;&lt;div&gt;- [日本自閉症協会：学校生活での配慮](https://www.autism.or.jp/)&lt;/div&gt;&lt;div&gt;&lt;br&gt;&lt;/div&gt;&lt;div&gt;---&lt;/div&gt;" style="text;html=1;align=center;verticalAlign=middle;whiteSpace=wrap;rounded=0;" vertex="1" parent="1">
          <mxGeometry x="120" y="300" width="560" height="30" as="geometry" />
        </mxCell>
      </root>
    </mxGraphModel>
  </diagram>
</mxfile>
